<svg xmlns="http://www.w3.org/2000/svg" xmlns:xlink="http://www.w3.org/1999/xlink" version="1.1" id="Layer_2" x="0px" y="0px" style="enable-background:new 0 0 300 221.7;" xml:space="preserve" viewBox="101.2 68 105.8 153.7"> <style type="text/css"> 	.st0{fill:#EEF1FF;} 	.st1{fill:#FFFFFF;} 	.st2{fill:#DDE0E4;} 	.st3{fill:#5A6E7F;} 	.st4{fill:#465664;} 	.st5{fill:#FED16D;} 	.st6{fill:#FEBE52;} 	.st7{fill:#FF845A;} </style> <g> 	 	 	 	 	 	 	<g> 		<g> 			<g> 				<path class="st4" d="M201.6,221.7h-95c-3,0-5.4-2.4-5.4-5.4v-125c0-3,2.4-5.4,5.4-5.4h95c3,0,5.4,2.4,5.4,5.4v125      C207,219.3,204.6,221.7,201.6,221.7z"></path> 				<rect x="107.4" y="92.3" class="st1" width="93.3" height="123"></rect> 			</g> 			<g> 				<path class="st5" d="M168.8,80.9v-5.3c0-4.2-3.4-7.6-7.6-7.6H147c-4.2,0-7.6,3.4-7.6,7.6v5.3h-9.1v16.6h47.5V80.9H168.8z"></path> 				<path class="st6" d="M159.2,77.7H149c-1.3,0-2.3-1-2.3-2.3V75c0-1.3,1-2.3,2.3-2.3h10.2c1.3,0,2.3,1,2.3,2.3v0.3      C161.5,76.6,160.4,77.7,159.2,77.7z"></path> 			</g> 		</g> 		<g> 			<g> 				<g> 					<path class="st7" d="M129.3,160.4v2.4h-11.1v-1.9l6-5.7c0.7-0.6,1.1-1.2,1.4-1.7c0.2-0.5,0.4-1,0.4-1.4c0-0.7-0.2-1.2-0.7-1.6       c-0.5-0.4-1.2-0.6-2.1-0.6c-1.5,0-2.7,0.5-3.5,1.6l-2-1.5c0.6-0.8,1.4-1.4,2.4-1.8c1-0.4,2.1-0.7,3.3-0.7       c1.6,0,2.9,0.4,3.9,1.2c1,0.8,1.5,1.8,1.5,3.2c0,0.8-0.2,1.6-0.5,2.3c-0.3,0.7-1,1.5-2,2.4l-4,3.8H129.3z"></path> 				</g> 				<g> 					<rect x="133.1" y="155.3" class="st2" width="57.4" height="2.5"></rect> 					<g> 						<rect x="133.1" y="150.4" class="st2" width="34.8" height="2.5"></rect> 						<rect x="133.1" y="160.3" class="st2" width="57.4" height="2.5"></rect> 					</g> 				</g> 			</g> 			<g> 				<g> 					<g> 						<path class="st7" d="M125,115.6v15h-2.8v-12.7H119v-2.3H125z"></path> 					</g> 					<g> 						<rect x="131.7" y="123.2" class="st2" width="57.4" height="2.5"></rect> 						<g> 							<rect x="131.7" y="118.2" class="st2" width="34.8" height="2.5"></rect> 							<rect x="131.7" y="128.2" class="st2" width="57.4" height="2.5"></rect> 						</g> 					</g> 				</g> 				<g> 					<g> 						<path class="st7" d="M128.1,187.1c0.7,0.8,1.1,1.7,1.1,2.9c0,0.9-0.2,1.7-0.7,2.4c-0.4,0.7-1.1,1.3-2,1.7        c-0.9,0.4-2,0.6-3.3,0.6c-1.1,0-2.1-0.2-3.1-0.5c-1-0.3-1.8-0.7-2.5-1.3l1.2-2.2c0.5,0.5,1.2,0.8,2,1.1        c0.8,0.3,1.6,0.4,2.4,0.4c1,0,1.8-0.2,2.3-0.6c0.6-0.4,0.8-1,0.8-1.7c0-0.7-0.3-1.2-0.8-1.6c-0.5-0.4-1.4-0.6-2.5-0.6h-1.4        v-1.9l3.4-4.1h-6.8v-2.3h10.2v1.9l-3.7,4.3C126.4,185.9,127.4,186.4,128.1,187.1z"></path> 					</g> 					<g> 						<rect x="133.1" y="187.3" class="st2" width="57.4" height="2.5"></rect> 						<g> 							<rect x="133.1" y="182.3" class="st2" width="34.8" height="2.5"></rect> 							<rect x="133.1" y="192.3" class="st2" width="57.4" height="2.5"></rect> 						</g> 					</g> 				</g> 			</g> 		</g> 	</g> </g> </svg>