<svg version="1.1" xmlns="http://www.w3.org/2000/svg" xmlns:xlink="http://www.w3.org/1999/xlink" width="640px" height="448px" viewBox="0,0,256,179.2"><g transform="translate(25.6,17.92) scale(0.8,0.8)"><g fill="#000000" fill-rule="nonzero" stroke="none" stroke-width="1" stroke-linecap="butt" stroke-linejoin="miter" stroke-miterlimit="10" stroke-dasharray="" stroke-dashoffset="0" font-family="none" font-weight="none" font-size="none" text-anchor="none" style="mix-blend-mode: normal"><g transform="translate(0,-12.8) scale(0.4,0.4)"><path d="M72,88c0,-30.92795 25.07205,-56 56,-56c30.92795,0 56,25.07205 56,56c0,30.92795 -25.07205,56 -56,56c-30.92795,0 -56,-25.07205 -56,-56zM64,245.7c-10,11.2 -16,26.1 -16,42.3c0,16.2 6,31.1 16,42.3v-84.7zM208.4,196.4c-29.7,26.3 -48.4,64.8 -48.4,107.6c0,34.3 12,65.8 32,90.5v21.5c0,17.7 -14.3,32 -32,32h-64c-17.7,0 -32,-14.3 -32,-32v-26.8c-37.8,-18 -64,-56.5 -64,-101.2c0,-61.9 50.1,-112 112,-112h32c24,0 46.2,7.5 64.4,20.3zM448,416v-21.5c20,-24.7 32,-56.2 32,-90.5c0,-42.8 -18.7,-81.3 -48.4,-107.7c18.2,-12.8 40.4,-20.3 64.4,-20.3h32c61.9,0 112,50.1 112,112c0,44.7 -26.2,83.2 -64,101.2v26.8c0,17.7 -14.3,32 -32,32h-64c-17.7,0 -32,-14.3 -32,-32zM456,88c0,-30.92795 25.07205,-56 56,-56c30.92795,0 56,25.07205 56,56c0,30.92795 -25.07205,56 -56,56c-30.92795,0 -56,-25.07205 -56,-56zM576,245.7v84.7c10,-11.3 16,-26.1 16,-42.3c0,-16.2 -6,-31.1 -16,-42.3zM320,32c35.34622,0 64,28.65378 64,64c0,35.34622 -28.65378,64 -64,64c-35.34622,0 -64,-28.65378 -64,-64c0,-35.34622 28.65378,-64 64,-64zM240,304c0,16.2 6,31 16,42.3v-84.7c-10,11.3 -16,26.1 -16,42.3zM384,261.7v84.7c10,-11.3 16,-26.1 16,-42.3c0,-16.2 -6,-31.1 -16,-42.3zM448,304c0,44.7 -26.2,83.2 -64,101.2v42.8c0,17.7 -14.3,32 -32,32h-64c-17.7,0 -32,-14.3 -32,-32v-42.8c-37.8,-18 -64,-56.5 -64,-101.2c0,-61.9 50.1,-112 112,-112h32c61.9,0 112,50.1 112,112z"></path></g></g></g></svg>