<svg version="1.1" xmlns="http://www.w3.org/2000/svg" xmlns:xlink="http://www.w3.org/1999/xlink" width="318.08px" height="330.26px" viewBox="0,0,246.55,256"><g transform="translate(24.655,25.6) scale(0.8,0.8)"><g fill="none" fill-rule="nonzero" stroke="none" stroke-width="1" stroke-linecap="butt" stroke-linejoin="miter" stroke-miterlimit="10" stroke-dasharray="" stroke-dashoffset="0" font-family="none" font-weight="none" font-size="none" text-anchor="none" style="mix-blend-mode: normal"><g transform="translate(-52.31961,-85.84154) scale(0.77515,0.77515)"><g><g><g fill="#861f41"><path d="M67.49231,264.6925h19v176.3075h-19z"></path></g><g fill="#861f41"><path d="M92.41538,271.9955h19v169.0045h-19z"></path></g><g fill="#861f41"><path d="M117.33846,263.548h19v177.452h-19z"></path></g><g fill="#861f41"><path d="M142.26154,257.553h19v183.447h-19z"></path></g><g fill="#861f41"><path d="M167.18462,245.345h19v195.655h-19z"></path></g><g fill="#861f41"><path d="M192.10769,242.4565h19v198.5435h-19z"></path></g><g fill="#861f41"><path d="M217.03077,232.919h19v208.081h-19z"></path></g><g fill="#861f41"><path d="M241.95385,212.754h19v228.246h-19z"></path></g><g fill="#009681"><path d="M266.87692,198.36113h19v242.63887h-19z"></path></g><g fill="#009681"><path d="M291.8,179.76885h19v261.23115h-19z"></path></g><g fill="#009681"><path d="M316.72308,158.96866h19v282.03134h-19z"></path></g><g fill="#009681"><path d="M341.64615,135.96058h19v305.03942h-19z"></path></g><g fill="#009681"><path d="M366.56923,110.7446h19v330.2554h-19z"></path></g></g></g></g></g></g></svg>