<svg version="1.1" xmlns="http://www.w3.org/2000/svg" xmlns:xlink="http://www.w3.org/1999/xlink" width="804.5px" height="661.87px" viewBox="0,0,256,210.6125"><g transform="translate(25.6,21.06125) scale(0.8,0.8)"><g fill="none" fill-rule="nonzero" stroke="none" stroke-width="none" stroke-linecap="butt" stroke-linejoin="miter" stroke-miterlimit="10" stroke-dasharray="" stroke-dashoffset="0" font-family="none" font-weight="none" font-size="none" text-anchor="none" style="mix-blend-mode: normal"><g transform="translate(-25.37725,-31.97293) scale(0.31821,0.31821)"><g fill="#000000" stroke="none" stroke-width="1" font-family="Inter, apple-system, BlinkMacSystemFont, &quot;Helvetica Neue&quot;, &quot;Segoe UI&quot;, &quot;Fira Sans&quot;, Roboto, Oxygen, Ubuntu, &quot;Droid Sans&quot;, Arial, sans-serif" font-weight="400" font-size="16" text-anchor="start"></g><g fill-opacity="0" fill="#000000" stroke="none" stroke-width="0"><rect x="80" y="100" width="804" height="656"></rect></g><g fill="#000000" stroke="none" stroke-width="1" font-family="Inter, apple-system, BlinkMacSystemFont, &quot;Helvetica Neue&quot;, &quot;Segoe UI&quot;, &quot;Fira Sans&quot;, Roboto, Oxygen, Ubuntu, &quot;Droid Sans&quot;, Arial, sans-serif" font-weight="400" font-size="16" text-anchor="start"><g></g><g></g></g><g fill="#000000" stroke="none" stroke-width="1" font-family="Inter, apple-system, BlinkMacSystemFont, &quot;Helvetica Neue&quot;, &quot;Segoe UI&quot;, &quot;Fira Sans&quot;, Roboto, Oxygen, Ubuntu, &quot;Droid Sans&quot;, Arial, sans-serif" font-weight="400" font-size="16" text-anchor="start"></g><g fill="#000000" stroke="none" stroke-width="1" font-family="Inter, apple-system, BlinkMacSystemFont, &quot;Helvetica Neue&quot;, &quot;Segoe UI&quot;, &quot;Fira Sans&quot;, Roboto, Oxygen, Ubuntu, &quot;Droid Sans&quot;, Arial, sans-serif" font-weight="400" font-size="16" text-anchor="start"></g><g fill="#000000" stroke="none" stroke-width="1" font-family="Inter, apple-system, BlinkMacSystemFont, &quot;Helvetica Neue&quot;, &quot;Segoe UI&quot;, &quot;Fira Sans&quot;, Roboto, Oxygen, Ubuntu, &quot;Droid Sans&quot;, Arial, sans-serif" font-weight="400" font-size="16" text-anchor="start"></g><g fill="#000000" stroke="none" stroke-width="1" font-family="Inter, apple-system, BlinkMacSystemFont, &quot;Helvetica Neue&quot;, &quot;Segoe UI&quot;, &quot;Fira Sans&quot;, Roboto, Oxygen, Ubuntu, &quot;Droid Sans&quot;, Arial, sans-serif" font-weight="400" font-size="16" text-anchor="start"></g><g fill="#000000" stroke="none" stroke-width="1" font-family="Inter, apple-system, BlinkMacSystemFont, &quot;Helvetica Neue&quot;, &quot;Segoe UI&quot;, &quot;Fira Sans&quot;, Roboto, Oxygen, Ubuntu, &quot;Droid Sans&quot;, Arial, sans-serif" font-weight="400" font-size="16" text-anchor="start"></g><g fill="#000000" stroke="none" stroke-width="1" font-family="Inter, apple-system, BlinkMacSystemFont, &quot;Helvetica Neue&quot;, &quot;Segoe UI&quot;, &quot;Fira Sans&quot;, Roboto, Oxygen, Ubuntu, &quot;Droid Sans&quot;, Arial, sans-serif" font-weight="400" font-size="16" text-anchor="start"></g><g fill="#000000" stroke="none" stroke-width="1" font-family="Inter, apple-system, BlinkMacSystemFont, &quot;Helvetica Neue&quot;, &quot;Segoe UI&quot;, &quot;Fira Sans&quot;, Roboto, Oxygen, Ubuntu, &quot;Droid Sans&quot;, Arial, sans-serif" font-weight="400" font-size="16" text-anchor="start"></g><g fill="#000000" stroke="none" stroke-width="1" font-family="Inter, apple-system, BlinkMacSystemFont, &quot;Helvetica Neue&quot;, &quot;Segoe UI&quot;, &quot;Fira Sans&quot;, Roboto, Oxygen, Ubuntu, &quot;Droid Sans&quot;, Arial, sans-serif" font-weight="400" font-size="16" text-anchor="start"></g><g fill="#000000" stroke="none" stroke-width="1" font-family="Inter, apple-system, BlinkMacSystemFont, &quot;Helvetica Neue&quot;, &quot;Segoe UI&quot;, &quot;Fira Sans&quot;, Roboto, Oxygen, Ubuntu, &quot;Droid Sans&quot;, Arial, sans-serif" font-weight="400" font-size="16" text-anchor="start"></g><g fill="#000000" stroke="none" stroke-width="1" font-family="Inter, apple-system, BlinkMacSystemFont, &quot;Helvetica Neue&quot;, &quot;Segoe UI&quot;, &quot;Fira Sans&quot;, Roboto, Oxygen, Ubuntu, &quot;Droid Sans&quot;, Arial, sans-serif" font-weight="400" font-size="16" text-anchor="start"></g><g fill="#000000" stroke="none" stroke-width="1" font-family="Inter, apple-system, BlinkMacSystemFont, &quot;Helvetica Neue&quot;, &quot;Segoe UI&quot;, &quot;Fira Sans&quot;, Roboto, Oxygen, Ubuntu, &quot;Droid Sans&quot;, Arial, sans-serif" font-weight="400" font-size="16" text-anchor="start"></g><g transform="translate(80,100)"><g fill-opacity="0.2" fill="#000000" stroke="#444444" stroke-width="0"><path d="M412,496.51653c186,0 186,10.89826 372,10.89826v53.05788c-186,0 -186,-10.89826 -372,-10.89826z"></path><path d="M412,576.14997c186,0 186,40.89826 372,40.89826v3.7299c-186,0 -186,-40.89826 -372,-40.89826z"></path><path d="M412,583.14354c186,0 186,70.89826 372,70.89826v1.9582c-186,0 -186,-70.89826 -372,-70.89826z"></path><path d="M412,579.87987c186,0 186,55.89826 372,55.89826v3.26367c-186,0 -186,-55.89826 -372,-55.89826z"></path><path d="M20,559.98071c186,0 186,-40.89826 372,-40.89826v27.88103c-186,0 -186,40.89826 -372,40.89826z"></path><path d="M20,419.46945c186,0 186,-19.74392 372,-19.74392v119.35691c-186,0 -186,19.74392 -372,19.74392z"></path><path d="M20,602.86174c186,0 186,-55.89826 372,-55.89826v21.63344c-186,0 -186,55.89826 -372,55.89826z"></path><path d="M20,30c186,0 186,10.25608 372,10.25608v212.13826c-186,0 -186,-10.25608 -372,-10.25608z"></path><path d="M20,257.13826c186,0 186,-4.74392 372,-4.74392v147.33119c-186,0 -186,4.74392 -372,4.74392z"></path><path d="M20,639.49518c186,0 186,-70.89826 372,-70.89826v16.50482c-186,0 -186,70.89826 -372,70.89826z"></path><path d="M412,40.25608c186,0 186,-40.25608 372,-40.25608v282.1672c-186,0 -186,40.25608 -372,40.25608z"></path><path d="M412,420.33325c186,0 186,-4.10174 372,-4.10174v76.18328c-186,0 -186,4.10174 -372,4.10174z"></path><path d="M20,538.82637c382,0 382,-143.7492 764,-143.7492v6.15434c-382,0 -382,143.7492 -764,143.7492z"></path><path d="M412,322.42328c186,0 186,-25.25608 372,-25.25608v97.90997c-186,0 -186,25.25608 -372,25.25608z"></path><path d="M412,549.57441c186,0 186,25.89826 372,25.89826v26.57556c-186,0 -186,-25.89826 -372,-25.89826z"></path></g><g><g transform="translate(0,559.98102)"><rect x="0" y="0" width="20" height="27.88103" fill="#800000" stroke="#000000" stroke-width="0.5"></rect><text x="23.25" y="18.14051" fill="#2a3f5f" stroke="none" stroke-width="1" font-family="&quot;Open Sans&quot;, verdana, arial, sans-serif" font-weight="normal" font-size="12" text-anchor="start">AAS in Pre-Nursing</text></g><g transform="translate(0,419.46899)"><rect x="0" y="0" width="20" height="125.51125" fill="#800000" stroke="#000000" stroke-width="0.5"></rect><text x="23.25" y="66.95563" fill="#2a3f5f" stroke="none" stroke-width="1" font-family="&quot;Open Sans&quot;, verdana, arial, sans-serif" font-weight="normal" font-size="12" text-anchor="start">BSN in Nursing</text></g><g transform="translate(0,602.862)"><rect x="0" y="0" width="20" height="21.63344" fill="#800000" stroke="#000000" stroke-width="0.5"></rect><text x="23.25" y="15.01672" fill="#2a3f5f" stroke="none" stroke-width="1" font-family="&quot;Open Sans&quot;, verdana, arial, sans-serif" font-weight="normal" font-size="12" text-anchor="start">BSN in Pre-Nursing 2nd degree</text></g><g transform="translate(0,30)"><rect x="0" y="0" width="20" height="212.13826" fill="#800000" stroke="#000000" stroke-width="0.5"></rect><text x="23.25" y="110.26913" fill="#2a3f5f" stroke="none" stroke-width="1" font-family="&quot;Open Sans&quot;, verdana, arial, sans-serif" font-weight="normal" font-size="12" text-anchor="start">BSN in Pre-RN Pre-Nursing</text></g><g transform="translate(0,257.138)"><rect x="0" y="0" width="20" height="147.33119" fill="#800000" stroke="#000000" stroke-width="0.5"></rect><text x="23.25" y="77.86559" fill="#2a3f5f" stroke="none" stroke-width="1" font-family="&quot;Open Sans&quot;, verdana, arial, sans-serif" font-weight="normal" font-size="12" text-anchor="start">Other</text></g><g transform="translate(0,639.495)"><rect x="0" y="0" width="20" height="16.50482" fill="#800000" stroke="#000000" stroke-width="0.5"></rect><text x="23.25" y="12.45241" fill="#2a3f5f" stroke="none" stroke-width="1" font-family="&quot;Open Sans&quot;, verdana, arial, sans-serif" font-weight="normal" font-size="12" text-anchor="start">Undeclared (Baccalaureate)</text></g><g transform="translate(784,507.41501)"><rect x="0" y="0" width="20" height="53.05788" fill="#800000" stroke="#000000" stroke-width="0.5"></rect><text x="-3.25" y="30.72894" fill="#2a3f5f" stroke="none" stroke-width="1" font-family="&quot;Open Sans&quot;, verdana, arial, sans-serif" font-weight="normal" font-size="12" text-anchor="end">AAS in Nursing</text></g><g transform="translate(784,617.04797)"><rect x="0" y="0" width="20" height="3.7299" fill="#800000" stroke="#000000" stroke-width="0.5"></rect><text x="-3.25" y="6.06495" fill="#2a3f5f" stroke="none" stroke-width="1" font-family="&quot;Open Sans&quot;, verdana, arial, sans-serif" font-weight="normal" font-size="12" text-anchor="end">BA in General Studies</text></g><g transform="translate(784,654.04199)"><rect x="0" y="0" width="20" height="1.9582" fill="#800000" stroke="#000000" stroke-width="0.5"></rect><text x="-3.25" y="5.1791" fill="#2a3f5f" stroke="none" stroke-width="1" font-family="&quot;Open Sans&quot;, verdana, arial, sans-serif" font-weight="normal" font-size="12" text-anchor="end">BS in Biology</text></g><g transform="translate(784,635.77802)"><rect x="0" y="0" width="20" height="3.26367" fill="#800000" stroke="#000000" stroke-width="0.5"></rect><text x="-3.25" y="5.83183" fill="#2a3f5f" stroke="none" stroke-width="1" font-family="&quot;Open Sans&quot;, verdana, arial, sans-serif" font-weight="normal" font-size="12" text-anchor="end">BS in Psychology</text></g><g transform="translate(392,40.256)"><rect x="0" y="0" width="20" height="544.84566" fill="#800000" stroke="#000000" stroke-width="0.5"></rect><text x="23.25" y="276.62283" fill="#2a3f5f" stroke="none" stroke-width="1" font-family="&quot;Open Sans&quot;, verdana, arial, sans-serif" font-weight="normal" font-size="12" text-anchor="start">BSN in Nursing</text></g><g transform="translate(784,0)"><rect x="0" y="0" width="20" height="282.1672" fill="#800000" stroke="#000000" stroke-width="0.5"></rect><text x="-3.25" y="145.2836" fill="#2a3f5f" stroke="none" stroke-width="1" font-family="&quot;Open Sans&quot;, verdana, arial, sans-serif" font-weight="normal" font-size="12" text-anchor="end">Graduated</text></g><g transform="translate(784,416.23199)"><rect x="0" y="0" width="20" height="76.18328" fill="#800000" stroke="#000000" stroke-width="0.5"></rect><text x="-3.25" y="42.29164" fill="#2a3f5f" stroke="none" stroke-width="1" font-family="&quot;Open Sans&quot;, verdana, arial, sans-serif" font-weight="normal" font-size="12" text-anchor="end">Not Enrolled</text></g><g transform="translate(784,297.16699)"><rect x="0" y="0" width="20" height="104.06431" fill="#800000" stroke="#000000" stroke-width="0.5"></rect><text x="-3.25" y="56.23215" fill="#2a3f5f" stroke="none" stroke-width="1" font-family="&quot;Open Sans&quot;, verdana, arial, sans-serif" font-weight="normal" font-size="12" text-anchor="end">Other</text></g><g transform="translate(784,575.47302)"><rect x="0" y="0" width="20" height="26.57556" fill="#800000" stroke="#000000" stroke-width="0.5"></rect><text x="-3.25" y="17.48778" fill="#2a3f5f" stroke="none" stroke-width="1" font-family="&quot;Open Sans&quot;, verdana, arial, sans-serif" font-weight="normal" font-size="12" text-anchor="end">Still Enrolled</text></g></g></g></g></g></g></svg>