<svg version="1.1" xmlns="http://www.w3.org/2000/svg" xmlns:xlink="http://www.w3.org/1999/xlink" width="105.8px" height="153.7px" viewBox="0,0,176.21251,256"><g transform="translate(17.62125,25.6) scale(0.8,0.8)"><g fill="none" fill-rule="nonzero" stroke="none" stroke-width="1" stroke-linecap="butt" stroke-linejoin="miter" stroke-miterlimit="10" stroke-dasharray="" stroke-dashoffset="0" font-family="none" font-weight="none" font-size="none" text-anchor="none" style="mix-blend-mode: normal"><g transform="translate(-168.55998,-113.2596) scale(1.66558,1.66558)"><g><g><g><g><path d="M201.6,221.7h-95c-3,0 -5.4,-2.4 -5.4,-5.4v-125c0,-3 2.4,-5.4 5.4,-5.4h95c3,0 5.4,2.4 5.4,5.4v125c0,3 -2.4,5.4 -5.4,5.4z" fill="#465664"></path><rect x="107.4" y="92.3" width="93.3" height="123" fill="#ffffff"></rect></g><g><path d="M168.8,80.9v-5.3c0,-4.2 -3.4,-7.6 -7.6,-7.6h-14.2c-4.2,0 -7.6,3.4 -7.6,7.6v5.3h-9.1v16.6h47.5v-16.6z" fill="#fed16d"></path><path d="M159.2,77.7h-10.2c-1.3,0 -2.3,-1 -2.3,-2.3v-0.4c0,-1.3 1,-2.3 2.3,-2.3h10.2c1.3,0 2.3,1 2.3,2.3v0.3c0,1.3 -1.1,2.4 -2.3,2.4z" fill="#febe52"></path></g></g><g><g><g fill="#ff845a"><path d="M129.3,160.4v2.4h-11.1v-1.9l6,-5.7c0.7,-0.6 1.1,-1.2 1.4,-1.7c0.2,-0.5 0.4,-1 0.4,-1.4c0,-0.7 -0.2,-1.2 -0.7,-1.6c-0.5,-0.4 -1.2,-0.6 -2.1,-0.6c-1.5,0 -2.7,0.5 -3.5,1.6l-2,-1.5c0.6,-0.8 1.4,-1.4 2.4,-1.8c1,-0.4 2.1,-0.7 3.3,-0.7c1.6,0 2.9,0.4 3.9,1.2c1,0.8 1.5,1.8 1.5,3.2c0,0.8 -0.2,1.6 -0.5,2.3c-0.3,0.7 -1,1.5 -2,2.4l-4,3.8z"></path></g><g fill="#dde0e4"><rect x="133.1" y="155.3" width="57.4" height="2.5"></rect><g><rect x="133.1" y="150.4" width="34.8" height="2.5"></rect><rect x="133.1" y="160.3" width="57.4" height="2.5"></rect></g></g></g><g><g><g fill="#ff845a"><path d="M125,115.6v15h-2.8v-12.7h-3.2v-2.3z"></path></g><g fill="#dde0e4"><rect x="131.7" y="123.2" width="57.4" height="2.5"></rect><g><rect x="131.7" y="118.2" width="34.8" height="2.5"></rect><rect x="131.7" y="128.2" width="57.4" height="2.5"></rect></g></g></g><g><g fill="#ff845a"><path d="M128.1,187.1c0.7,0.8 1.1,1.7 1.1,2.9c0,0.9 -0.2,1.7 -0.7,2.4c-0.4,0.7 -1.1,1.3 -2,1.7c-0.9,0.4 -2,0.6 -3.3,0.6c-1.1,0 -2.1,-0.2 -3.1,-0.5c-1,-0.3 -1.8,-0.7 -2.5,-1.3l1.2,-2.2c0.5,0.5 1.2,0.8 2,1.1c0.8,0.3 1.6,0.4 2.4,0.4c1,0 1.8,-0.2 2.3,-0.6c0.6,-0.4 0.8,-1 0.8,-1.7c0,-0.7 -0.3,-1.2 -0.8,-1.6c-0.5,-0.4 -1.4,-0.6 -2.5,-0.6h-1.4v-1.9l3.4,-4.1h-6.8v-2.3h10.2v1.9l-3.7,4.3c1.7,0.3 2.7,0.8 3.4,1.5z"></path></g><g fill="#dde0e4"><rect x="133.1" y="187.3" width="57.4" height="2.5"></rect><g><rect x="133.1" y="182.3" width="34.8" height="2.5"></rect><rect x="133.1" y="192.3" width="57.4" height="2.5"></rect></g></g></g></g></g></g></g></g></g></g></svg>